<?xml version="1.0" encoding="UTF-8" standalone="no"?><!DOCTYPE svg PUBLIC "-//W3C//DTD SVG 1.1//EN" "http://www.w3.org/Graphics/SVG/1.1/DTD/svg11.dtd"><svg width="100%" height="100%" viewBox="0 0 209 209" version="1.1" xmlns="http://www.w3.org/2000/svg" xmlns:xlink="http://www.w3.org/1999/xlink" xml:space="preserve" xmlns:serif="http://www.serif.com/" style="fill-rule:evenodd;clip-rule:evenodd;stroke-linecap:round;stroke-linejoin:round;stroke-miterlimit:1.5;"><g><circle cx="104.055" cy="104.055" r="103.561" style="fill:#f0ecd3;stroke:#000;stroke-width:0.99px;"/><g><g><path d="M65.017,91.785l-8.136,-0.072" style="fill:none;stroke:#536181;stroke-width:0.74px;"/><path d="M69.244,88.934l-9.019,-0.072" style="fill:none;stroke:#536181;stroke-width:0.74px;"/><path d="M72.42,85.877l-8.723,-0.121" style="fill:none;stroke:#536181;stroke-width:0.74px;"/><path d="M76.729,83.075l-9.593,-0.17" style="fill:none;stroke:#536181;stroke-width:0.74px;"/><path d="M77.357,80.344l-7.099,-0.034" style="fill:none;stroke:#536181;stroke-width:0.74px;"/><path d="M77.789,77.49l-4.186,-0.131" style="fill:none;stroke:#536181;stroke-width:0.74px;"/><path d="M78.127,75.157l-1.83,-0.488" style="fill:none;stroke:#536181;stroke-width:0.74px;"/><path d="M79.832,73.489l-1.123,-0.601" style="fill:none;stroke:#536181;stroke-width:0.74px;"/><path d="M82.021,73.188l-0.947,-1.639" style="fill:none;stroke:#536181;stroke-width:0.74px;"/><path d="M84.66,73.188l-0.948,-1.639" style="fill:none;stroke:#536181;stroke-width:0.74px;"/><path d="M87.487,73.188l-0.947,-1.639" style="fill:none;stroke:#536181;stroke-width:0.74px;"/><path d="M89.864,73.188l-0.947,-1.639" style="fill:none;stroke:#536181;stroke-width:0.74px;"/><path d="M92.503,73.188l-0.948,-1.639" style="fill:none;stroke:#536181;stroke-width:0.74px;"/><path d="M95.079,72.888l-0.696,-1.339" style="fill:none;stroke:#536181;stroke-width:0.74px;"/><path d="M26.744,131.177l18.619,0l15.726,3.933l13.781,5.093l27.712,0l11.474,-2.396l10.347,-1.648l15.029,-1.049l12.433,-1.498l6.441,-2.055l0,-4.353l-3.278,-1.506l-32.746,-0.474l23.741,-2.097l25.615,-2.098l4.494,-3.07l0,-4.05l-3.446,-2.836l-20.821,1.118l-26.637,0l3.523,-1.118l9.228,0l8.044,0l5.842,0l14.587,-1.918l12.271,0l3.164,-3.259l0,-4.986l-4.314,-2.78l-22.938,0l-10.899,-0.599l-8.537,0.599l-15.148,0l5.177,-1.63l6.321,0l30.397,1.63l7.954,-1.944l1.738,-3.041l0,-3.643l-5.186,-3.451l-11.817,-1.726l-24.23,-1.534l-12.559,0l-9.85,-2.54l-12.666,-1.199l-6.868,0" style="fill:none;stroke:#000;stroke-width:0.97px;"/><path d="M112.557,81.327l8.301,-2.864l6.431,-6.96l-2.157,-3.596l-8.867,1.199l-10.426,0l-13.182,2.397l-12.463,0l-23.129,20.132l-25.412,-2.769" style="fill:none;stroke:#000;stroke-width:0.97px;"/><path d="M116.265,127.09l-6.847,2.277l-4.276,0" style="fill:none;stroke:#000;stroke-width:0.97px;"/><path d="M119.522,113.189c-4.314,2.037 -8.818,1.318 -8.818,1.318" style="fill:none;stroke:#000;stroke-width:0.97px;"/><path d="M116.265,99.408l-6.847,0" style="fill:none;stroke:#000;stroke-width:0.97px;"/><path d="M141.216,114.63l0,7.435" style="fill:none;stroke:#000;stroke-width:0.97px;"/><path d="M139.04,116.359l0,3.758" style="fill:none;stroke:#000;stroke-width:0.97px;"/><path d="M130.773,128.318l0,5.093" style="fill:none;stroke:#000;stroke-width:0.97px;"/><path d="M127.289,128.318l0,5.093" style="fill:none;stroke:#000;stroke-width:0.97px;"/><path d="M143.992,85.627l0,6.591" style="fill:none;stroke:#000;stroke-width:0.97px;"/><path d="M141.216,85.627l0,8.238" style="fill:none;stroke:#000;stroke-width:0.97px;"/><path d="M168.51,87.67l-6.079,2.126l0,4.522l6.079,2.095" style="fill:none;stroke:#000;stroke-width:0.97px;"/><path d="M178.928,99.048l-5.864,2.517l0,4.314l5.864,2.876" style="fill:none;stroke:#000;stroke-width:0.97px;"/><path d="M173.064,111.637l-5.333,2.12l0,4.913l4.761,1.481" style="fill:none;stroke:#000;stroke-width:0.97px;"/><path d="M155.028,125.698l-4.004,2.376l0.438,3.266l3.566,1.202" style="fill:none;stroke:#000;stroke-width:0.97px;"/><path d="M117.212,69.329l0,5.872l6.178,0" style="fill:none;stroke:#000;stroke-width:0.97px;"/><path d="M146.692,99.048l0,9.707" style="fill:none;stroke:#000;stroke-width:0.97px;"/><path d="M144.056,100.966l0,6.351" style="fill:none;stroke:#000;stroke-width:0.97px;"/><path d="M149.568,100.966l0,6.351" style="fill:none;stroke:#000;stroke-width:0.97px;"/><path d="M113.298,138.121l3.323,-3.006" style="fill:none;stroke:#536181;stroke-width:0.74px;"/><path d="M104.535,139.825l5.428,-4.71" style="fill:none;stroke:#536181;stroke-width:0.74px;"/><path d="M96.772,139.825l5.428,-4.71" style="fill:none;stroke:#536181;stroke-width:0.74px;"/><path d="M89.009,139.529l5.428,-4.71" style="fill:none;stroke:#536181;stroke-width:0.74px;"/><path d="M108.417,139.121l5.427,-4.71" style="fill:none;stroke:#536181;stroke-width:0.74px;"/><path d="M81.246,140.045l5.084,-4.171" style="fill:none;stroke:#536181;stroke-width:0.74px;"/><path d="M100.654,139.825l5.427,-4.71" style="fill:none;stroke:#536181;stroke-width:0.74px;"/><path d="M77.365,139.749l4.642,-3.875" style="fill:none;stroke:#536181;stroke-width:0.74px;"/><path d="M92.891,139.825l5.427,-4.71" style="fill:none;stroke:#536181;stroke-width:0.74px;"/><path d="M73.685,139.377l4.004,-3.131" style="fill:none;stroke:#536181;stroke-width:0.74px;"/><path d="M71.097,138.394l4.004,-3.131" style="fill:none;stroke:#536181;stroke-width:0.74px;"/><path d="M68.654,137.322l2.973,-2.696" style="fill:none;stroke:#536181;stroke-width:0.74px;"/><path d="M85.128,139.529l5.133,-4.414" style="fill:none;stroke:#536181;stroke-width:0.74px;"/><path d="M50.99,132.115l4.057,-4.802" style="fill:none;stroke:#536181;stroke-width:0.74px;"/><path d="M54.786,132.818l2.172,-2.406" style="fill:none;stroke:#536181;stroke-width:0.74px;"/><path d="M57.411,134.021l2.171,-2.406" style="fill:none;stroke:#536181;stroke-width:0.74px;"/><path d="M60.902,134.979l1.879,-1.916" style="fill:none;stroke:#536181;stroke-width:0.74px;"/><path d="M64.641,135.951l1.865,-1.93" style="fill:none;stroke:#536181;stroke-width:0.74px;"/><path d="M123.19,124.788l1.262,-2.369" style="fill:none;stroke:#536181;stroke-width:0.74px;"/><path d="M125.895,124.348l1.262,-2.369" style="fill:none;stroke:#536181;stroke-width:0.74px;"/><path d="M128.864,124.348l1.261,-2.369" style="fill:none;stroke:#536181;stroke-width:0.74px;"/><path d="M131.505,123.97l1.261,-2.369" style="fill:none;stroke:#536181;stroke-width:0.74px;"/><path d="M134.525,123.604l1.262,-2.369" style="fill:none;stroke:#536181;stroke-width:0.74px;"/><path d="M126.45,111.079l1.262,-2.369" style="fill:none;stroke:#536181;stroke-width:0.74px;"/><path d="M129.154,110.638l1.262,-2.368" style="fill:none;stroke:#536181;stroke-width:0.74px;"/><path d="M132.123,110.638l1.262,-2.368" style="fill:none;stroke:#536181;stroke-width:0.74px;"/><path d="M134.764,110.26l1.262,-2.369" style="fill:none;stroke:#536181;stroke-width:0.74px;"/><path d="M137.785,109.894l1.262,-2.368" style="fill:none;stroke:#536181;stroke-width:0.74px;"/><path d="M140.928,109.548l1.262,-2.369" style="fill:none;stroke:#536181;stroke-width:0.74px;"/><path d="M145.105,96.944l1.577,-2.172" style="fill:none;stroke:#536181;stroke-width:0.74px;"/><path d="M147.844,96.881l1.577,-2.172" style="fill:none;stroke:#536181;stroke-width:0.74px;"/><path d="M150.784,96.944l1.577,-2.172" style="fill:none;stroke:#536181;stroke-width:0.74px;"/><path d="M153.452,97.282l1.577,-2.172" style="fill:none;stroke:#536181;stroke-width:0.74px;"/><path d="M156.494,97.337l1.577,-2.172" style="fill:none;stroke:#536181;stroke-width:0.74px;"/><path d="M159.656,97.428l1.577,-2.172" style="fill:none;stroke:#536181;stroke-width:0.74px;"/><path d="M47.951,131.135l4.981,-5.726" style="fill:none;stroke:#536181;stroke-width:0.74px;"/><path d="M43.991,131.103l4.7,-5.694" style="fill:none;stroke:#536181;stroke-width:0.74px;"/><path d="M39.251,131.103l4.74,-5.787" style="fill:none;stroke:#536181;stroke-width:0.74px;"/><path d="M34.606,131.103l5.485,-6.278" style="fill:none;stroke:#536181;stroke-width:0.74px;"/><path d="M30.308,131.135l6.167,-6.962" style="fill:none;stroke:#536181;stroke-width:0.74px;"/><path d="M26.224,131.135l6.168,-6.962" style="fill:none;stroke:#536181;stroke-width:0.74px;"/><path d="M112.246,80.771l0.622,-2.558" style="fill:none;stroke:#536181;stroke-width:0.74px;"/><path d="M114.491,80.089l0.622,-2.557" style="fill:none;stroke:#536181;stroke-width:0.74px;"/><path d="M117.096,79.154l0.621,-2.557" style="fill:none;stroke:#536181;stroke-width:0.74px;"/><path d="M119.814,78.213l0.487,-2.243" style="fill:none;stroke:#536181;stroke-width:0.74px;"/></g><path d="M207.616,104.055c0,57.157 -46.404,103.561 -103.561,103.561c-57.156,0 -103.561,-46.404 -103.561,-103.561c0,-57.156 46.405,-103.561 103.561,-103.561c57.157,0 103.561,46.405 103.561,103.561Z" style="fill:none;stroke:#000;stroke-width:0.99px;"/></g></g></svg>