<?xml version="1.0" encoding="UTF-8" standalone="no"?><!DOCTYPE svg PUBLIC "-//W3C//DTD SVG 1.1//EN" "http://www.w3.org/Graphics/SVG/1.1/DTD/svg11.dtd"><svg width="100%" height="100%" viewBox="0 0 209 209" version="1.1" xmlns="http://www.w3.org/2000/svg" xmlns:xlink="http://www.w3.org/1999/xlink" xml:space="preserve" xmlns:serif="http://www.serif.com/" style="fill-rule:evenodd;clip-rule:evenodd;stroke-linecap:round;stroke-linejoin:round;stroke-miterlimit:1.5;"><g><circle cx="104.055" cy="104.055" r="103.561" style="fill:#d2e6f0;stroke:#000;stroke-width:0.99px;"/><g><g><path d="M113.581,85.708l-0.028,3.529" style="fill:none;stroke:#536280;stroke-width:0.66px;"/><path d="M107.817,81.001l3.937,-10.661" style="fill:none;stroke:#3c3636;stroke-width:1px;"/><path d="M128.251,188.469l-10.246,-41.524l10.246,-24.04l1.896,-23.607l2.071,-6.627l0,-4.003l-5.384,-6.212l-3.313,0l0,-6.075l-3.314,-5.936l-6.35,0l-2.209,0l15.186,-43.487l0,-4.555l-4.491,-2.761l-4.338,1.104l-22.761,51.878l-6.236,-23.422l-2.761,-22.244l-2.35,-4.555l-6.21,0l-1.794,4.555l1.794,49.423l0,8.559l-1.794,7.731l0,46.386l4.555,49.412" style="fill:none;stroke:#3c3636;stroke-width:1px;"/><path d="M80.31,96.951l10.492,-15.876l21.951,0l2.347,3.865l0,4.556l-7.731,3.59l-7.731,3.865l-8.836,12.287" style="fill:none;stroke:#3c3636;stroke-width:1px;"/><path d="M103.349,81.001l3.053,7.253l7.179,-5.937" style="fill:none;stroke:#3c3636;stroke-width:1px;"/><path d="M100.758,96.8l0,7.808l4.529,2.675l5.963,-2.675l5.081,-9.452l6.958,-12.839" style="fill:none;stroke:#3c3636;stroke-width:1px;"/><path d="M109.785,104.84l0,-6.297l-5.73,-1.693l-3.297,4.589" style="fill:none;stroke:#3c3636;stroke-width:1px;"/><path d="M130.026,93.377l-6.737,8.062l-5.302,5.844l-4.406,1.955l-6.088,-2.764" style="fill:none;stroke:#3c3636;stroke-width:1px;"/><path d="M115.32,108.241l-1.739,-6.802" style="fill:none;stroke:#3c3636;stroke-width:1px;"/><path d="M94.685,135.928l9.37,-8.053l1.217,-19.452l-4.514,13.584l-11.595,8.514" style="fill:none;stroke:#3c3636;stroke-width:1px;"/><path d="M130.734,94.947l-0.774,-0.069" style="fill:none;stroke:#536280;stroke-width:0.66px;"/><path d="M130.165,96.61l-1.466,-0.129" style="fill:none;stroke:#536280;stroke-width:0.66px;"/><path d="M129.595,98.367l-2.527,-0.223" style="fill:none;stroke:#536280;stroke-width:0.66px;"/><path d="M129.067,100.21l-3.496,-0.309" style="fill:none;stroke:#536280;stroke-width:0.66px;"/><path d="M128.702,104.216l-5.705,-0.505" style="fill:none;stroke:#536280;stroke-width:0.66px;"/><path d="M128.21,106.454l-7.955,-0.704" style="fill:none;stroke:#536280;stroke-width:0.66px;"/><path d="M128.885,102.178l-4.904,-0.434" style="fill:none;stroke:#536280;stroke-width:0.66px;"/><path d="M128.643,117.901l-4.228,-0.155" style="fill:none;stroke:#536280;stroke-width:0.66px;"/><path d="M128.541,120.692l-4.228,-0.155" style="fill:none;stroke:#536280;stroke-width:0.66px;"/><path d="M127.933,123.465l-3.722,-0.136" style="fill:none;stroke:#536280;stroke-width:0.66px;"/><path d="M126.711,126.215l-4.3,-0.157" style="fill:none;stroke:#536280;stroke-width:0.66px;"/><path d="M125.868,128.979l-5.186,-0.19" style="fill:none;stroke:#536280;stroke-width:0.66px;"/><path d="M124.357,131.718l-4.249,-0.155" style="fill:none;stroke:#536280;stroke-width:0.66px;"/><path d="M123.336,134.476l-5.389,-0.197" style="fill:none;stroke:#536280;stroke-width:0.66px;"/><path d="M121.708,137.211l-5.736,-0.209" style="fill:none;stroke:#536280;stroke-width:0.66px;"/><path d="M120.274,139.954l-5.762,-0.211" style="fill:none;stroke:#536280;stroke-width:0.66px;"/><path d="M119.325,142.714l-7.191,-0.263" style="fill:none;stroke:#536280;stroke-width:0.66px;"/><path d="M117.539,145.444l-4.206,-0.154" style="fill:none;stroke:#536280;stroke-width:0.66px;"/><path d="M118.432,148.271l-4.84,-0.177" style="fill:none;stroke:#536280;stroke-width:0.66px;"/><path d="M119.019,151.087l-4.915,-0.179" style="fill:none;stroke:#536280;stroke-width:0.66px;"/><path d="M119.764,153.91l-5.26,-0.193" style="fill:none;stroke:#536280;stroke-width:0.66px;"/><path d="M119.662,156.701l-4.634,-0.17" style="fill:none;stroke:#536280;stroke-width:0.66px;"/><path d="M120.579,159.529l-4.975,-0.182" style="fill:none;stroke:#536280;stroke-width:0.66px;"/><path d="M121.11,162.343l-4.956,-0.181" style="fill:none;stroke:#536280;stroke-width:0.66px;"/><path d="M121.821,165.164l-5.77,-0.211" style="fill:none;stroke:#536280;stroke-width:0.66px;"/><path d="M122.17,167.972l-3.763,-0.138" style="fill:none;stroke:#536280;stroke-width:0.66px;"/><path d="M111.308,88.022l-0.02,2.635" style="fill:none;stroke:#536280;stroke-width:0.66px;"/><path d="M109.045,89.202l-0.021,2.685" style="fill:none;stroke:#536280;stroke-width:0.66px;"/><path d="M106.78,90.527l-0.02,2.561" style="fill:none;stroke:#536280;stroke-width:0.66px;"/><path d="M104.518,91.426l-0.023,2.948" style="fill:none;stroke:#536280;stroke-width:0.66px;"/><path d="M102.264,91.409l-0.03,3.797" style="fill:none;stroke:#536280;stroke-width:0.66px;"/><path d="M100.006,91.754l-0.039,5.05" style="fill:none;stroke:#536280;stroke-width:0.66px;"/><path d="M97.752,91.737l-0.065,8.309" style="fill:none;stroke:#536280;stroke-width:0.66px;"/><path d="M95.486,93.255l-0.079,10.089" style="fill:none;stroke:#536280;stroke-width:0.66px;"/><path d="M93.194,97.942l-0.06,7.676" style="fill:none;stroke:#536280;stroke-width:0.66px;"/><path d="M121.912,79.199l-0.084,5.355" style="fill:none;stroke:#536280;stroke-width:0.66px;"/><path d="M120.511,81.394l-0.09,5.736" style="fill:none;stroke:#536280;stroke-width:0.66px;"/><path d="M119.015,89.66l0.084,-5.419" style="fill:none;stroke:#536280;stroke-width:0.66px;"/><path d="M117.609,92.171l0.079,-5.083" style="fill:none;stroke:#536280;stroke-width:0.66px;"/><path d="M116.197,95.055l0.07,-4.469" style="fill:none;stroke:#536280;stroke-width:0.66px;"/><path d="M114.799,97.055l0.048,-3.04" style="fill:none;stroke:#536280;stroke-width:0.66px;"/><path d="M113.397,99.357l0.044,-2.86" style="fill:none;stroke:#536280;stroke-width:0.66px;"/><path d="M86.122,27.847l-3.54,-2.968" style="fill:none;stroke:#536280;stroke-width:0.66px;"/><path d="M86.781,33.116l-3.54,-2.967" style="fill:none;stroke:#536280;stroke-width:0.66px;"/><path d="M87.11,35.751l-3.54,-2.968" style="fill:none;stroke:#536280;stroke-width:0.66px;"/><path d="M87.44,38.386l-3.54,-2.968" style="fill:none;stroke:#536280;stroke-width:0.66px;"/><path d="M87.769,41.02l-3.54,-2.968" style="fill:none;stroke:#536280;stroke-width:0.66px;"/><path d="M88.098,43.655l-3.54,-2.968" style="fill:none;stroke:#536280;stroke-width:0.66px;"/><path d="M89.415,54.193l-3.54,-2.968" style="fill:none;stroke:#536280;stroke-width:0.66px;"/><path d="M92.956,64.159l-6.093,-5.03" style="fill:none;stroke:#536280;stroke-width:0.66px;"/><path d="M88.428,46.289l-3.54,-2.967" style="fill:none;stroke:#536280;stroke-width:0.66px;"/><path d="M88.757,48.924l-3.54,-2.968" style="fill:none;stroke:#536280;stroke-width:0.66px;"/><path d="M89.086,51.559l-3.54,-2.968" style="fill:none;stroke:#536280;stroke-width:0.66px;"/><path d="M86.452,30.482l-3.54,-2.968" style="fill:none;stroke:#536280;stroke-width:0.66px;"/><path d="M126.112,27.432l-1.871,-4.224" style="fill:none;stroke:#536280;stroke-width:0.66px;"/><path d="M124.382,32.452l-1.871,-4.224" style="fill:none;stroke:#536280;stroke-width:0.66px;"/><path d="M123.517,34.962l-1.871,-4.223" style="fill:none;stroke:#536280;stroke-width:0.66px;"/><path d="M122.652,37.473l-1.871,-4.224" style="fill:none;stroke:#536280;stroke-width:0.66px;"/><path d="M121.787,39.983l-1.871,-4.224" style="fill:none;stroke:#536280;stroke-width:0.66px;"/><path d="M120.922,42.493l-1.871,-4.224" style="fill:none;stroke:#536280;stroke-width:0.66px;"/><path d="M120.057,45.003l-1.871,-4.223" style="fill:none;stroke:#536280;stroke-width:0.66px;"/><path d="M119.192,47.514l-1.871,-4.224" style="fill:none;stroke:#536280;stroke-width:0.66px;"/><path d="M125.247,29.942l-1.871,-4.224" style="fill:none;stroke:#536280;stroke-width:0.66px;"/><path d="M118.16,49.533l-1.872,-4.224" style="fill:none;stroke:#536280;stroke-width:0.66px;"/><path d="M116.431,54.553l-1.872,-4.223" style="fill:none;stroke:#536280;stroke-width:0.66px;"/><path d="M115.567,57.064l-1.872,-4.223" style="fill:none;stroke:#536280;stroke-width:0.66px;"/><path d="M114.702,59.574l-1.871,-4.223" style="fill:none;stroke:#536280;stroke-width:0.66px;"/><path d="M113.838,62.085l-1.872,-4.224" style="fill:none;stroke:#536280;stroke-width:0.66px;"/><path d="M112.973,64.595l-1.871,-4.223" style="fill:none;stroke:#536280;stroke-width:0.66px;"/><path d="M112.109,67.106l-1.871,-4.224" style="fill:none;stroke:#536280;stroke-width:0.66px;"/><path d="M111.245,69.616l-1.872,-4.223" style="fill:none;stroke:#536280;stroke-width:0.66px;"/><path d="M117.295,52.043l-1.871,-4.223" style="fill:none;stroke:#536280;stroke-width:0.66px;"/><path d="M91.642,60.468l-5.108,-3.973" style="fill:none;stroke:#536280;stroke-width:0.66px;"/><path d="M90.649,57.451l-4.444,-3.591" style="fill:none;stroke:#536280;stroke-width:0.66px;"/></g><circle cx="104.055" cy="104.055" r="103.561" style="fill:none;stroke:#000;stroke-width:0.99px;"/></g></g></svg>